P3
50 50
255
0 49 141 0 49 141 0 51 142 0 51 143 0 50 145 0 50 145 0 53 149 0 54 152 0 56 153 0 58 157 0 63 160 0 64 161 0 69 164 0 70 165 0 70 166 0 73 168 0 73 168 0 73 168 0 72 170 0 72 170 0 72 170 0 72 172 0 74 173 0 74 173 0 74 173 0 73 175 0 73 175 0 73 175 0 73 175 0 73 175 0 74 173 0 74 173 0 70 168 0 70 168 0 70 168 0 69 170 0 69 170 0 72 172 0 72 172 0 72 172 0 72 172 0 72 172 0 72 172 0 72 172 0 72 172 0 74 173 0 74 173 0 74 173 0 75 176 0 76 174 
0 51 142 0 51 142 0 51 143 0 51 143 0 50 145 0 53 147 0 53 149 0 54 152 0 56 153 0 60 158 0 63 160 0 64 161 0 69 164 0 70 166 0 70 166 0 73 168 0 73 168 0 73 168 0 72 170 0 72 170 0 72 170 0 72 172 0 74 173 0 74 173 0 74 173 0 73 175 0 73 175 0 73 175 0 73 175 0 74 173 0 74 173 0 74 173 0 70 168 0 69 170 0 69 170 0 69 170 0 72 172 0 72 172 0 72 172 0 72 172 0 72 172 0 72 172 0 72 172 0 72 172 0 74 173 0 74 173 0 74 173 0 74 173 0 75 176 0 75 176 
0 51 142 0 51 142 0 51 143 0 51 143 0 53 147 0 53 147 0 54 150 0 56 153 0 58 155 0 60 158 0 63 160 0 64 161 0 69 164 0 70 166 0 70 166 0 73 168 0 73 168 0 73 168 0 72 170 0 72 170 0 72 170 0 74 173 0 74 173 0 74 173 0 74 173 0 73 175 0 73 175 0 73 175 0 74 173 0 74 173 0 74 173 0 74 173 0 72 172 0 72 172 0 72 172 0 72 172 0 72 172 0 72 172 0 72 172 0 72 172 0 72 172 0 72 172 0 74 173 0 74 173 0 74 173 0 74 173 0 74 173 0 74 173 0 80 179 0 78 178 
0 54 144 0 54 144 0 53 145 0 53 145 0 53 147 0 55 148 0 54 150 0 56 153 0 58 155 0 60 158 0 63 160 0 66 162 0 68 165 0 70 166 0 70 166 0 73 168 0 73 168 0 73 168 0 72 170 0 72 170 0 72 170 0 74 173 0 74 173 0 74 173 0 74 173 0 74 173 0 73 175 0 74 173 0 74 173 0 74 173 0 74 173 0 74 173 0 72 172 0 72 172 0 72 172 0 72 172 0 72 172 0 72 172 0 72 172 0 72 172 0 74 173 0 74 173 0 74 173 0 74 173 0 74 173 0 74 173 0 74 173 0 74 173 0 82 181 0 80 179 
0 55 145 0 55 145 0 55 146 0 55 146 0 55 148 0 56 151 0 56 151 0 58 155 0 60 156 0 63 160 0 64 161 0 66 162 0 68 165 0 70 166 0 70 166 0 73 168 0 73 168 0 73 168 0 72 170 0 74 171 0 74 171 0 74 173 0 74 173 0 74 173 0 74 173 0 74 173 0 74 173 0 74 173 0 74 173 0 74 173 0 74 173 0 74 173 0 72 172 0 72 172 0 72 172 0 72 172 0 72 172 0 74 173 0 74 173 0 74 173 0 74 173 0 74 173 0 74 173 0 74 173 0 74 173 0 76 174 0 76 174 0 76 174 0 84 182 0 82 181 
0 55 145 0 55 146 0 57 147 0 57 147 0 56 149 0 56 151 0 59 153 0 60 156 0 60 156 0 63 160 0 64 161 0 66 163 0 68 165 0 70 166 0 73 168 0 73 168 0 73 168 0 74 171 0 74 171 0 74 171 0 74 171 0 74 173 0 74 173 0 74 173 0 74 173 0 74 173 0 74 173 0 74 173 0 74 173 0 74 173 0 74 173 0 74 173 0 74 173 0 74 173 0 74 173 0 74 173 0 74 173 0 74 173 0 74 173 0 74 173 0 74 173 0 74 173 0 76 174 0 76 174 0 76 174 0 76 174 0 76 174 0 76 174 0 84 182 0 82 181 
0 57 146 0 57 147 0 57 147 0 57 147 0 59 151 0 59 153 0 61 154 0 60 156 0 63 160 0 64 161 0 66 162 0 68 165 0 68 165 0 70 166 0 73 168 0 73 168 0 74 171 0 74 171 0 74 171 0 74 171 0 74 171 0 74 173 0 74 173 0 74 173 0 74 173 0 74 173 0 74 173 0 74 173 0 74 173 0 74 173 0 74 173 0 74 173 0 74 173 0 74 173 0 74 173 0 74 173 0 74 173 0 74 173 0 74 173 0 76 174 0 76 174 0 76 174 0 76 174 0 76 174 0 76 172 0 76 172 0 76 172 0 76 172 0 83 179 0 83 179 
0 59 149 0 59 149 0 59 149 0 59 151 0 59 151 0 61 154 0 60 156 0 63 158 0 64 161 0 64 161 0 66 163 0 68 165 0 70 166 0 70 166 0 73 168 0 73 168 0 74 171 0 74 171 0 74 171 0 74 171 0 74 171 0 74 173 0 74 173 0 74 173 0 74 173 0 74 173 0 74 173 0 74 173 0 74 173 0 74 173 0 74 173 0 74 171 0 74 173 0 74 173 0 74 173 0 74 173 0 74 173 0 76 174 0 76 174 0 76 174 0 76 174 0 76 172 0 76 172 0 76 172 0 76 172 0 79 174 0 79 174 0 79 174 0 80 175 0 80 175 
0 59 149 0 59 149 0 59 149 0 61 152 0 61 152 0 61 154 0 63 158 0 63 158 0 64 161 0 66 162 0 68 165 0 68 165 0 70 166 0 73 168 0 73 168 0 73 168 0 74 171 0 74 171 0 74 171 0 74 171 0 74 171 0 74 173 0 74 173 0 74 173 0 74 173 0 74 173 0 74 173 0 74 173 0 74 173 0 74 171 0 74 171 0 74 171 0 74 173 0 74 173 0 76 174 0 76 174 0 76 174 0 76 174 0 76 174 0 76 174 0 76 172 0 76 172 0 76 172 0 79 174 0 79 174 0 79 174 0 79 174 0 79 174 0 79 172 0 79 172 
0 59 149 0 61 150 0 61 150 0 61 152 0 61 154 0 63 156 0 63 158 0 65 159 0 66 162 0 66 162 0 68 165 0 70 166 0 70 166 0 73 168 0 73 168 0 72 170 0 74 171 0 74 171 0 74 171 0 74 171 0 74 171 0 74 173 0 74 173 0 74 173 0 74 173 0 74 173 0 74 173 0 74 173 0 74 171 0 74 171 0 74 171 0 74 171 0 76 174 0 76 174 0 76 174 0 76 174 0 76 174 0 76 174 0 76 174 0 76 172 0 76 172 0 76 172 0 79 174 0 79 174 0 79 174 0 79 174 0 79 174 0 79 174 0 77 169 0 76 170 
0 59 149 0 61 150 0 61 152 0 61 152 0 63 156 0 63 156 0 65 159 0 64 161 0 66 162 0 68 165 0 68 165 0 70 166 0 73 168 0 72 170 0 72 170 0 72 170 0 74 171 0 74 171 0 74 171 0 74 171 0 74 171 0 74 173 0 74 173 0 74 173 0 74 173 0 74 173 0 74 173 0 74 171 0 74 171 0 74 171 0 74 171 0 76 172 0 76 174 0 76 174 0 76 174 0 76 174 0 76 174 0 76 174 0 76 174 0 76 172 0 76 172 0 76 172 0 79 174 0 79 174 0 79 174 0 79 174 0 79 174 0 79 174 0 77 169 0 75 168 
0 59 149 0 61 150 0 61 152 0 61 152 0 63 156 0 63 156 0 65 159 0 66 162 0 66 162 0 68 165 0 70 166 0 70 166 0 72 170 0 72 170 0 72 170 0 74 171 0 74 171 0 74 171 0 74 171 0 74 171 0 74 171 0 74 173 0 74 173 0 74 173 0 74 173 0 74 173 0 74 173 0 74 171 0 74 171 0 76 172 0 76 172 0 76 172 0 76 174 0 76 174 0 76 174 0 76 174 0 76 174 0 76 174 0 76 174 0 76 172 0 76 172 0 76 172 0 79 174 0 79 174 0 79 174 0 79 174 0 79 172 0 79 172 0 77 169 0 77 169 
0 59 149 0 59 149 0 61 152 0 61 152 0 63 156 0 63 156 0 65 159 0 66 162 0 66 162 0 68 165 0 70 166 0 70 166 0 72 170 0 72 170 0 74 171 0 74 171 0 74 171 0 74 171 0 74 171 0 74 171 0 74 171 0 74 173 0 74 173 0 74 173 0 74 173 0 74 173 0 74 171 0 76 172 0 76 172 0 76 172 0 76 172 0 76 170 0 76 174 0 76 174 0 76 174 0 76 174 0 76 174 0 76 174 0 76 172 0 76 172 0 76 172 0 76 172 0 79 174 0 79 174 0 79 174 0 79 172 0 79 172 0 79 172 0 79 171 0 77 169 
0 59 149 0 59 149 0 59 151 0 61 152 0 63 156 0 63 158 0 65 159 0 66 162 0 69 164 0 68 165 0 70 166 0 72 170 0 72 170 0 72 170 0 74 171 0 74 171 0 74 171 0 74 171 0 74 171 0 74 171 0 74 171 0 74 173 0 74 173 0 74 173 0 74 173 0 74 173 0 74 171 0 76 172 0 76 172 0 76 172 0 76 170 0 76 170 0 74 173 0 74 173 0 76 174 0 76 174 0 76 174 0 76 174 0 76 172 0 76 172 0 76 172 0 76 172 0 76 172 0 79 174 0 79 172 0 79 172 0 79 172 0 79 172 0 81 173 0 79 172 
0 59 149 0 59 151 0 59 151 0 61 152 0 61 154 0 63 158 0 65 159 0 66 162 0 69 164 0 68 165 0 70 166 0 72 170 0 72 170 0 74 171 0 74 171 0 74 171 0 74 171 0 74 171 0 74 171 0 74 171 0 74 171 0 74 173 0 74 173 0 74 173 0 74 173 0 74 171 0 76 172 0 76 172 0 76 172 0 76 172 0 76 170 0 76 170 0 74 173 0 74 173 0 74 173 0 76 174 0 76 174 0 76 174 0 76 172 0 76 172 0 76 172 0 76 172 0 76 172 0 79 172 0 79 172 0 79 172 0 79 172 0 79 172 0 83 175 0 81 173 
0 59 149 0 59 151 0 59 151 0 61 152 0 61 154 0 63 158 0 65 159 0 66 162 0 68 165 0 70 166 0 70 166 0 72 170 0 72 170 0 74 171 0 74 171 0 74 171 0 74 171 0 74 171 0 74 171 0 74 171 0 74 173 0 74 173 0 74 173 0 74 173 0 74 173 0 74 171 0 76 172 0 76 172 0 76 172 0 76 172 0 76 170 0 76 170 0 74 173 0 74 173 0 74 173 0 74 173 0 76 174 0 76 174 0 76 172 0 76 172 0 76 172 0 76 172 0 76 172 0 76 170 0 79 172 0 79 172 0 79 172 0 79 172 0 83 175 0 83 175 
0 61 152 0 61 152 0 61 154 0 63 156 0 63 156 0 65 159 0 66 160 0 66 160 0 69 164 0 70 165 0 70 165 0 73 167 0 73 167 0 75 168 0 75 168 0 75 168 0 79 171 0 78 176 0 78 179 0 78 178 0 76 170 0 77 167 0 76 172 0 75 177 0 75 177 0 76 172 0 77 167 0 76 170 0 75 176 0 75 177 0 76 174 0 77 169 0 74 169 0 74 169 0 76 170 0 76 170 0 76 170 0 79 172 0 79 172 0 79 172 0 79 172 0 79 172 0 79 172 0 76 170 0 76 170 0 76 170 0 76 170 0 74 169 0 76 174 0 72 170 
0 61 152 0 61 152 0 61 154 0 63 156 0 63 156 0 65 159 0 66 160 0 69 162 0 69 164 0 70 165 0 70 165 0 73 167 0 73 167 0 75 168 0 75 168 0 75 168 0 79 172 0 79 174 0 78 178 0 78 176 0 76 170 0 77 169 0 76 172 0 75 176 0 73 175 0 74 171 0 77 169 0 76 170 0 76 174 0 75 176 0 76 172 0 77 169 0 74 169 0 74 169 0 74 169 0 76 170 0 76 170 0 76 170 0 79 172 0 79 172 0 79 172 0 79 172 0 76 170 0 76 170 0 76 170 0 76 170 0 74 169 0 74 169 0 77 167 0 73 168 
0 61 152 0 61 154 0 61 154 0 63 156 0 65 159 0 65 159 0 66 160 0 69 164 0 69 164 0 70 165 0 70 165 0 73 167 0 73 168 0 73 168 0 74 169 0 74 169 0 79 174 0 79 174 0 76 172 0 76 172 0 76 172 0 76 170 0 74 171 0 74 171 0 74 171 0 74 171 0 74 169 0 74 169 0 74 171 0 76 172 0 76 172 0 76 170 0 74 169 0 74 169 0 74 169 0 74 169 0 76 170 0 76 170 0 76 170 0 76 170 0 76 170 0 76 170 0 76 170 0 76 170 0 76 170 0 74 169 0 74 169 0 74 169 0 78 160 0 73 167 
0 61 154 0 61 154 0 63 156 0 63 156 0 65 159 0 66 160 0 66 162 0 69 164 0 70 165 0 70 165 0 70 166 0 73 168 0 73 168 0 73 168 0 73 168 0 73 168 0 76 174 0 76 170 0 77 169 0 76 170 0 76 172 0 74 173 0 74 171 0 75 168 0 75 168 0 74 171 0 74 173 0 74 171 0 75 168 0 75 168 0 74 169 0 74 171 0 73 168 0 74 169 0 74 169 0 74 169 0 74 169 0 76 170 0 76 170 0 76 170 0 76 170 0 76 170 0 76 170 0 76 170 0 74 169 0 74 169 0 74 169 0 74 169 0 78 161 0 74 163 
0 61 154 0 63 156 0 63 156 0 63 158 0 65 159 0 66 160 0 66 162 0 69 164 0 70 166 0 70 166 0 70 166 0 73 168 0 73 168 0 73 168 0 73 168 0 73 168 0 75 176 0 76 170 0 77 167 0 75 168 0 74 173 0 73 175 0 74 171 0 75 166 0 75 166 0 74 171 0 73 175 0 74 173 0 75 168 0 76 164 0 75 168 0 74 173 0 73 168 0 73 168 0 74 169 0 74 169 0 74 169 0 74 169 0 74 169 0 76 170 0 76 170 0 76 170 0 76 170 0 76 170 0 74 169 0 74 169 0 74 169 0 74 169 0 78 161 0 74 161 
0 63 156 0 63 156 0 63 156 0 65 159 0 65 159 0 66 162 0 69 164 0 68 165 0 70 166 0 70 166 0 70 166 0 70 166 0 73 168 0 73 168 0 73 168 0 73 168 0 75 176 0 76 170 0 76 164 0 75 166 0 74 173 0 73 175 0 74 171 0 75 166 0 75 166 0 74 171 0 73 175 0 74 173 0 75 166 0 76 164 0 75 168 0 75 176 0 74 171 0 74 171 0 74 169 0 74 169 0 74 169 0 74 169 0 74 169 0 76 170 0 76 170 0 76 170 0 76 170 0 76 170 0 74 169 0 74 169 0 74 169 0 74 169 0 79 156 0 75 158 
0 63 156 0 63 156 0 63 156 0 65 159 0 66 160 0 66 162 0 69 164 0 68 165 0 70 166 0 70 166 0 70 166 0 70 166 0 70 166 0 70 166 0 70 166 0 70 165 0 74 173 0 74 169 0 75 166 0 75 168 0 74 171 0 74 173 0 74 171 0 73 165 0 75 166 0 74 171 0 73 175 0 74 173 0 75 168 0 77 167 0 76 170 0 76 174 0 74 169 0 74 169 0 74 169 0 74 169 0 74 169 0 74 169 0 76 170 0 76 170 0 76 170 0 76 170 0 76 170 0 76 170 0 76 170 0 76 170 0 77 169 0 77 169 0 80 151 0 75 158 
0 63 156 0 63 156 0 65 159 0 65 159 0 66 162 0 66 162 0 69 164 0 68 165 0 70 166 0 70 166 0 70 166 0 70 166 0 70 165 0 70 165 0 69 164 0 69 164 0 74 169 0 74 169 0 75 168 0 73 167 0 73 168 0 72 170 0 73 168 0 73 167 0 75 168 0 74 169 0 74 171 0 74 171 0 76 170 0 76 170 0 76 170 0 76 172 0 74 169 0 76 170 0 76 170 0 76 170 0 76 170 0 76 170 0 76 170 0 76 170 0 76 170 0 77 169 0 77 169 0 77 169 0 77 169 0 77 169 0 77 169 0 77 169 0 80 153 0 75 158 
0 63 156 0 63 156 0 65 159 0 65 159 0 66 162 0 66 162 0 69 164 0 68 165 0 70 166 0 70 166 0 70 166 0 69 164 0 69 164 0 69 162 0 69 162 0 66 160 0 73 165 0 73 167 0 73 168 0 73 168 0 73 167 0 73 167 0 73 168 0 72 170 0 72 170 0 74 169 0 74 169 0 74 169 0 76 172 0 76 174 0 76 172 0 79 172 0 76 170 0 76 170 0 76 170 0 76 170 0 76 170 0 77 169 0 77 169 0 77 169 0 77 169 0 77 169 0 77 169 0 77 167 0 77 167 0 77 167 0 77 167 0 77 167 0 78 160 0 74 159 
0 63 156 0 63 156 0 65 159 0 65 159 0 66 160 0 66 162 0 69 164 0 69 164 0 69 164 0 69 164 0 69 164 0 69 162 0 66 160 0 67 158 0 67 158 0 67 158 0 70 158 0 69 162 0 70 166 0 70 165 0 71 161 0 71 159 0 71 163 0 70 168 0 72 170 0 73 167 0 75 166 0 75 168 0 76 174 0 75 176 0 76 172 0 79 171 0 77 169 0 77 169 0 77 169 0 77 169 0 77 169 0 77 169 0 77 169 0 77 167 0 75 166 0 75 166 0 75 166 0 75 166 0 75 166 0 76 164 0 76 164 0 76 164 0 76 162 0 72 157 
0 63 156 0 63 156 0 65 157 0 65 159 0 66 160 0 66 162 0 69 164 0 69 164 0 69 164 0 69 164 0 69 162 0 66 160 0 67 158 0 65 155 0 65 155 0 65 155 0 68 153 0 67 158 0 66 162 0 66 160 0 67 154 0 68 153 0 69 160 0 68 167 0 70 168 0 71 163 0 74 161 0 73 165 0 74 171 0 75 176 0 76 172 0 77 167 0 77 169 0 77 169 0 77 167 0 77 167 0 77 167 0 75 166 0 75 166 0 75 166 0 76 164 0 74 163 0 74 163 0 74 163 0 74 163 0 74 163 0 74 161 0 74 161 0 75 156 0 70 156 
0 63 156 0 63 156 0 65 157 0 65 159 0 66 160 0 66 162 0 69 164 0 69 164 0 69 162 0 69 162 0 67 158 0 67 158 0 65 155 0 66 153 0 64 152 0 64 151 0 62 145 0 61 150 0 61 154 0 64 154 0 65 149 0 65 149 0 66 153 0 64 161 0 66 162 0 69 160 0 72 157 0 71 161 0 73 168 0 74 173 0 74 169 0 76 164 0 77 167 0 77 167 0 77 167 0 75 166 0 76 164 0 74 163 0 74 163 0 74 163 0 71 161 0 71 159 0 71 159 0 71 159 0 71 159 0 71 159 0 71 159 0 72 157 0 74 149 0 70 155 
0 63 156 0 63 156 0 63 156 0 65 159 0 66 160 0 66 160 0 69 162 0 69 162 0 69 162 0 67 158 0 67 156 0 65 155 0 66 153 0 64 151 0 62 147 0 62 147 0 59 139 0 58 142 0 57 144 0 57 144 0 58 142 0 61 144 0 62 149 0 61 152 0 64 154 0 66 153 0 67 154 0 70 158 0 71 163 0 70 165 0 73 165 0 74 163 0 76 164 0 76 164 0 76 164 0 74 163 0 74 163 0 71 159 0 71 159 0 70 158 0 70 158 0 67 154 0 67 154 0 67 154 0 67 154 0 67 154 0 67 154 0 67 154 0 69 147 0 68 153 
0 63 156 0 63 156 0 63 156 0 65 157 0 65 159 0 66 160 0 66 160 0 69 162 0 67 158 0 67 158 0 65 155 0 66 153 0 64 151 0 62 147 0 62 145 0 62 145 0 53 133 0 53 133 0 53 133 0 55 137 0 55 138 0 56 139 0 58 142 0 58 142 0 60 146 0 62 149 0 64 152 0 65 155 0 67 156 0 70 158 0 69 160 0 71 161 0 74 163 0 74 161 0 74 161 0 71 159 0 71 159 0 70 158 0 67 156 0 67 154 0 66 153 0 66 153 0 66 153 0 64 151 0 64 151 0 64 151 0 64 151 0 64 151 0 67 148 0 68 151 
0 63 156 0 63 156 0 63 156 0 65 157 0 65 159 0 66 160 0 66 160 0 66 160 0 67 158 0 67 156 0 66 153 0 64 151 0 65 149 0 62 145 0 61 142 0 61 142 0 48 130 0 49 126 0 52 127 0 52 128 0 51 134 0 52 136 0 55 138 0 57 138 0 59 139 0 60 146 0 61 150 0 64 152 0 66 152 0 68 151 0 67 154 0 69 160 0 71 159 0 71 159 0 71 159 0 70 158 0 70 158 0 67 154 0 66 153 0 64 152 0 64 152 0 62 149 0 62 149 0 62 149 0 62 149 0 62 147 0 62 147 0 62 147 0 66 142 0 67 148 
0 61 152 0 63 156 0 63 156 0 65 157 0 65 159 0 66 160 0 66 160 0 67 158 0 67 158 0 67 156 0 66 153 0 64 151 0 62 147 0 62 145 0 61 142 0 61 142 0 47 129 0 48 124 0 50 121 0 49 125 0 51 134 0 50 135 0 52 135 0 56 133 0 57 136 0 57 144 0 59 151 0 61 150 0 65 147 0 67 148 0 68 153 0 67 158 0 71 159 0 71 159 0 70 158 0 70 158 0 67 154 0 66 153 0 64 152 0 64 152 0 62 149 0 62 149 0 60 148 0 60 146 0 60 146 0 60 146 0 60 146 0 60 146 0 65 133 0 67 146 
0 84 172 0 79 172 0 74 171 0 70 166 0 70 156 0 63 142 0 56 131 0 51 130 0 56 139 0 66 153 0 69 160 0 61 152 0 50 137 0 45 128 0 49 126 0 56 131 0 53 119 0 33 100 0 20 93 0 33 114 0 57 146 0 66 152 0 52 127 0 30 92 0 20 83 0 25 107 0 38 139 0 57 160 0 71 161 0 71 149 0 51 134 0 31 122 0 50 149 0 79 172 0 95 187 0 76 170 0 43 137 0 33 114 0 55 120 0 81 137 0 81 146 0 63 140 0 46 132 0 41 129 0 46 132 0 50 137 0 51 140 0 51 140 0 61 142 0 76 151 
0 62 147 0 64 152 0 66 160 0 69 162 0 71 159 0 68 153 0 63 143 0 55 137 0 52 136 0 54 142 0 56 149 0 60 156 0 61 152 0 57 138 0 55 122 0 52 109 0 46 108 0 27 94 0 17 86 0 31 98 0 59 129 0 68 143 0 54 128 0 31 96 0 19 77 0 24 88 0 35 117 0 51 143 0 65 157 0 71 159 0 71 159 0 66 160 0 61 141 0 78 150 0 88 160 0 78 160 0 60 148 0 55 135 0 65 131 0 71 133 0 64 138 0 52 138 0 46 134 0 48 132 0 51 132 0 51 130 0 49 126 0 48 124 0 60 133 0 64 138 
0 47 125 0 52 135 0 57 144 0 59 149 0 61 154 0 61 152 0 64 151 0 61 144 0 52 135 0 46 131 0 47 139 0 56 153 0 67 158 0 67 145 0 59 115 0 49 90 0 34 95 0 21 88 0 17 86 0 32 93 0 56 113 0 66 127 0 53 121 0 31 96 0 21 78 0 26 83 0 43 112 0 52 135 0 61 144 0 67 145 0 78 150 0 87 156 0 60 97 0 62 103 0 63 114 0 69 138 0 75 156 0 77 157 0 70 140 0 57 128 0 42 124 0 39 130 0 46 132 0 56 131 0 59 127 0 53 121 0 47 117 0 43 112 0 58 122 0 48 124 
0 54 128 0 53 131 0 51 134 0 44 133 0 39 134 0 43 137 0 54 142 0 63 142 0 62 139 0 52 135 0 47 135 0 50 139 0 58 140 0 63 132 0 59 115 0 52 99 0 22 82 0 23 91 0 26 100 0 36 110 0 47 115 0 54 116 0 45 104 0 30 92 0 23 91 0 33 110 0 55 135 0 68 143 0 64 126 0 54 100 0 53 84 0 58 78 0 32 29 0 22 42 0 28 76 0 47 115 0 69 146 0 73 152 0 58 140 0 38 123 0 31 114 0 36 120 0 47 127 0 54 126 0 59 119 0 54 114 0 47 115 0 38 119 0 50 109 0 40 110 
0 62 139 0 57 134 0 49 128 0 38 123 0 30 120 0 31 121 0 42 124 0 58 132 0 66 140 0 63 142 0 53 133 0 44 119 0 40 109 0 44 107 0 49 115 0 53 121 0 20 81 0 31 96 0 42 118 0 42 128 0 38 123 0 37 108 0 35 93 0 29 89 0 23 101 0 33 128 0 55 148 0 70 142 0 63 107 0 38 59 0 20 21 0 12 2 8 11 0 0 0 26 0 0 61 0 32 105 0 55 122 0 58 131 0 44 131 0 34 123 0 37 115 0 45 113 0 47 119 0 48 120 0 54 114 0 55 109 0 48 112 0 37 118 0 47 101 0 39 106 
0 55 137 0 51 130 0 47 125 0 43 122 0 42 124 0 42 124 0 46 123 0 53 123 0 58 131 0 59 135 0 53 129 0 40 109 0 30 90 0 29 89 0 37 108 0 47 129 0 20 81 0 40 101 0 53 121 0 46 124 0 32 117 0 27 108 0 33 102 0 31 96 0 22 95 0 18 102 0 32 117 7 55 127 0 50 101 0 31 62 0 8 27 6 0 14 0 8 31 0 2 56 0 17 95 0 37 108 0 49 107 0 45 104 0 38 113 0 41 123 0 48 120 0 48 112 0 39 108 0 38 113 0 49 116 0 57 112 0 50 101 0 32 91 0 44 93 0 41 103 
0 42 124 0 41 120 0 42 118 0 49 125 0 59 137 0 62 139 0 57 134 0 50 123 0 47 119 0 50 121 0 48 120 0 40 109 0 31 96 0 25 92 0 27 98 0 32 107 0 16 75 0 34 95 0 48 112 0 45 112 0 34 106 0 32 109 0 36 112 0 33 100 0 19 77 0 6 64 0 11 77 0 19 92 0 40 110 0 33 98 0 18 83 0 11 77 0 21 95 0 39 116 0 44 119 5 53 119 0 45 102 0 40 92 0 40 99 0 48 114 0 49 118 0 39 108 2 31 99 0 33 104 0 49 118 6 62 123 0 43 88 0 25 56 0 38 85 0 36 94 
0 47 117 0 42 118 0 39 118 0 45 126 0 53 133 0 61 141 0 59 139 0 51 130 0 44 117 0 44 109 0 44 107 0 43 112 0 38 113 0 32 107 0 27 96 0 24 86 0 10 69 0 19 85 0 30 102 0 38 109 0 44 109 0 44 107 8 50 110 0 33 87 0 20 71 0 10 63 0 20 83 0 38 113 3 51 133 8 58 143 16 55 146 5 35 133 0 57 160 0 59 137 0 59 117 0 50 109 0 38 103 0 32 93 0 36 86 0 41 93 0 35 101 7 34 105 0 24 88 0 35 93 0 45 110 0 45 113 0 27 82 0 10 46 0 32 83 0 29 85 
0 61 126 0 56 131 0 46 131 0 40 127 0 37 118 0 39 118 0 45 126 0 49 128 0 47 119 0 44 105 0 43 98 0 44 109 0 43 121 0 41 121 0 34 105 0 29 87 0 10 81 0 12 84 0 19 96 0 35 117 0 48 122 0 52 102 0 41 73 0 28 65 0 10 70 0 35 116 0 52 135 0 68 143 0 69 144 0 61 141 0 46 131 0 36 124 0 52 153 0 57 126 0 54 100 0 43 98 0 30 103 0 24 94 0 26 75 0 25 66 0 21 76 0 21 86 0 29 87 0 38 83 0 36 84 0 24 86 0 9 78 0 1 68 0 36 98 0 27 80 
0 64 138 0 65 147 0 62 149 0 50 135 0 36 112 0 27 98 0 28 102 0 33 112 0 38 111 0 40 102 0 39 94 0 41 97 0 48 114 0 48 122 0 44 119 0 38 111 0 27 114 0 22 95 0 23 93 0 35 117 0 47 125 0 44 89 0 30 41 0 19 46 0 32 107 0 57 164 0 76 174 0 84 154 0 76 138 0 60 132 0 48 122 0 41 107 0 38 123 0 44 107 0 48 94 0 40 89 0 30 92 0 21 84 0 18 64 0 17 47 0 19 52 0 28 76 0 40 92 0 37 79 0 21 52 0 3 44 0 1 68 0 5 97 0 53 121 0 34 82 
0 51 142 0 61 150 0 70 155 0 67 145 0 53 123 0 35 101 0 23 90 0 20 91 0 24 96 0 29 97 0 34 95 0 39 94 0 45 102 0 45 110 0 43 121 0 40 127 0 46 132 0 39 106 0 35 91 0 39 106 0 39 106 30 59 99 0 14 30 0 18 56 0 38 123 0 62 168 0 75 166 0 71 133 0 62 123 0 56 131 0 53 129 0 54 118 0 33 102 0 40 99 0 45 87 0 43 75 0 35 67 0 26 63 0 19 51 0 15 34 0 19 34 0 33 64 0 42 92 0 32 81 0 9 42 3 0 29 0 11 67 0 27 116 0 64 135 0 44 93 
0 46 140 0 55 138 0 64 138 0 70 140 0 67 138 0 53 123 0 35 99 0 24 84 0 21 84 0 27 96 7 39 112 0 38 103 0 36 94 0 32 91 0 30 100 0 28 111 0 45 112 0 44 109 0 44 109 0 42 102 0 33 78 0 15 46 0 6 40 0 20 81 0 46 132 0 64 152 0 64 135 0 55 112 0 49 115 0 51 130 0 55 137 0 56 133 0 33 87 0 37 82 0 37 64 0 34 44 0 27 36 0 19 38 0 15 36 0 10 20 0 8 11 0 21 38 0 27 72 0 22 80 0 10 63 0 13 58 0 32 89 0 56 130 0 54 118 0 46 96 
0 56 139 0 52 125 0 48 114 0 48 120 0 55 137 0 57 138 0 51 117 0 41 93 0 36 86 0 35 99 0 37 115 0 35 116 0 27 96 0 19 77 0 15 72 0 12 72 0 25 65 0 33 104 0 41 131 0 41 107 0 27 56 0 2 23 0 3 54 0 25 105 0 52 136 0 67 138 0 62 123 0 51 114 0 48 114 0 49 118 0 46 121 0 39 118 28 58 96 0 28 52 0 20 27 0 14 15 0 10 20 0 8 29 0 6 28 0 0 10 4 0 1 0 0 12 25 33 70 0 14 77 0 19 96 0 32 109 0 50 123 2 71 140 0 27 82 0 39 96 
0 65 131 0 51 116 0 35 103 0 27 106 2 36 123 0 45 128 0 53 121 0 52 102 0 48 96 0 45 104 0 37 115 0 31 114 0 22 98 0 15 74 0 11 56 0 13 48 0 8 47 0 23 99 0 39 134 0 39 108 0 24 52 0 7 35 0 10 71 0 34 121 0 58 140 0 69 138 0 65 131 0 59 129 0 54 118 0 47 101 0 35 93 0 23 93 0 23 55 0 15 34 0 9 18 0 6 22 0 5 37 0 5 43 0 1 29 8 0 13 12 0 4 10 0 11 1 0 31 0 13 68 9 36 115 0 40 128 11 62 143 0 57 128 0 12 62 0 32 91 
0 52 112 0 47 115 0 36 114 0 28 111 0 27 104 0 33 102 0 40 102 0 45 104 0 45 104 0 40 102 0 30 100 0 26 100 4 27 97 7 29 87 0 25 65 0 27 54 0 10 81 0 28 101 0 44 107 0 37 82 0 19 52 0 10 59 0 22 95 0 42 126 0 59 137 0 64 136 0 59 135 0 56 130 0 50 111 0 42 92 0 33 84 0 30 90 0 18 64 0 12 52 0 9 48 0 18 66 0 26 85 0 23 75 0 9 42 4 0 14 5 0 7 1 0 16 0 6 38 49 66 112 0 29 85 0 36 98 0 35 99 0 31 95 26 53 98 0 30 92 
0 31 95 0 37 115 0 44 131 0 41 123 0 34 98 0 27 80 0 27 82 0 31 96 0 32 105 0 29 97 0 21 84 0 21 84 0 28 91 0 35 91 0 42 82 0 40 65 0 23 127 11 52 118 0 50 77 0 37 53 0 5 44 0 10 79 0 28 111 0 51 130 1 59 133 0 56 131 0 51 130 0 46 121 0 41 103 0 37 90 9 50 104 0 46 105 0 20 83 0 15 82 0 20 91 0 39 114 0 52 125 0 45 104 0 20 53 0 6 18 0 7 15 0 15 34 0 2 38 21 43 82 25 50 81 0 27 56 0 19 59 0 10 61 0 49 90 0 34 97 
0 31 95 0 20 93 0 22 98 0 40 110 0 53 107 12 50 99 0 15 82 0 15 100 0 33 110 0 43 78 0 29 35 0 25 45 0 41 107 0 56 149 0 50 119 0 30 64 0 39 132 0 30 82 0 30 54 0 42 84 0 44 119 2 34 111 0 9 59 10 48 84 0 66 116 0 72 146 3 58 138 0 40 102 0 43 88 3 47 84 0 20 57 7 0 34 0 35 91 0 34 82 0 30 80 0 26 85 0 26 87 0 32 73 0 31 49 0 13 22 12 0 12 26 0 13 13 0 10 0 15 38 0 37 89 0 39 106 0 22 71 0 5 27 27 74 94 0 34 79 
0 44 119 0 33 104 0 28 93 0 36 96 0 43 96 0 32 79 0 16 65 0 12 72 0 21 88 0 31 88 0 29 71 0 28 68 0 33 87 7 47 117 0 37 107 0 26 87 0 17 83 1 22 69 0 26 59 0 20 56 0 37 92 27 53 128 0 17 95 0 33 100 0 60 120 0 76 138 0 68 139 0 53 123 0 45 104 0 40 92 0 25 81 0 12 72 0 36 86 0 31 85 0 25 79 0 21 66 0 19 51 0 18 42 0 16 41 0 7 33 3 0 17 9 0 3 4 0 1 0 11 29 0 23 67 0 26 83 0 21 68 0 13 45 0 27 38 0 20 55 
