P3
50 50
255
52 101 193 46 95 187 51 102 193 47 98 190 45 95 190 53 103 198 48 101 197 47 101 199 48 104 201 46 104 203 44 107 204 43 107 204 37 106 201 41 111 206 37 107 203 38 111 206 38 111 206 38 111 206 38 110 208 37 109 207 37 109 207 38 110 210 39 113 212 40 114 213 37 111 210 37 110 212 39 112 214 40 113 215 40 113 215 39 112 214 38 112 211 39 113 212 44 114 212 40 110 208 43 113 211 42 111 212 46 115 216 39 111 211 41 113 213 41 113 213 40 112 212 40 112 212 42 114 214 39 111 211 42 114 214 40 114 213 43 117 216 40 114 213 40 115 216 41 117 215 
50 101 192 46 97 188 53 104 196 49 100 192 49 99 194 52 105 199 50 103 199 50 104 202 45 101 198 48 108 206 41 104 201 43 107 204 41 110 205 37 107 203 44 114 210 37 110 205 36 109 204 37 110 205 39 111 209 41 113 211 41 113 211 40 112 212 37 111 210 36 110 209 40 114 213 40 113 215 40 113 215 40 113 215 40 113 215 39 113 212 39 113 212 40 114 213 39 109 207 42 111 212 43 112 213 39 108 209 40 112 212 42 114 214 43 115 215 39 111 211 44 116 216 40 112 212 43 115 215 43 115 215 45 119 218 40 114 213 42 116 215 44 118 217 40 115 216 41 116 217 
48 99 190 46 97 188 53 104 196 48 99 191 51 104 198 50 103 197 48 102 198 50 106 203 48 106 203 42 102 200 50 113 210 41 105 202 41 110 205 42 112 208 38 108 204 39 112 207 41 114 209 39 112 207 38 110 208 37 109 207 38 110 208 38 112 211 39 113 212 39 113 212 42 116 215 41 114 216 40 113 215 40 113 215 40 114 213 39 113 212 40 114 213 41 115 214 40 112 212 40 112 212 39 111 211 42 114 214 41 113 213 42 114 214 41 113 213 42 114 214 45 117 217 41 113 213 42 116 215 43 117 216 45 119 218 40 114 213 41 115 214 43 117 216 38 118 217 39 117 217 
47 101 191 45 99 189 51 104 196 45 98 190 54 107 201 47 102 195 47 101 197 50 106 203 46 104 201 48 108 206 45 108 205 43 109 205 42 110 207 38 108 204 42 112 208 37 110 205 38 111 206 39 112 207 39 111 209 40 112 210 41 113 211 39 113 212 38 112 211 37 111 210 40 114 213 40 114 213 40 113 215 40 114 213 40 114 213 40 114 213 41 115 214 42 116 215 43 115 215 41 113 213 39 111 211 45 117 217 42 114 214 42 114 214 39 111 211 43 115 215 42 116 215 43 117 216 43 117 216 41 115 214 41 115 214 42 116 215 42 116 215 40 114 213 37 119 218 38 118 217 
48 103 193 46 101 191 49 104 195 45 100 191 54 109 202 47 103 198 48 104 199 48 106 203 43 103 199 46 109 206 42 106 203 45 111 207 41 109 206 41 111 207 42 112 208 39 112 207 38 111 206 39 112 207 40 112 210 39 113 210 39 113 210 39 113 212 39 113 212 39 113 212 39 113 212 39 113 212 40 114 213 40 114 213 40 114 213 40 114 213 40 114 213 41 115 214 40 112 212 44 116 216 41 113 213 41 113 213 38 110 210 43 117 216 41 115 214 39 113 212 42 116 215 44 118 217 43 117 216 42 116 215 41 115 214 42 118 216 41 117 215 40 116 214 37 121 219 36 118 217 
47 102 192 46 101 192 47 104 194 45 102 192 52 108 201 48 104 199 48 107 201 47 107 203 46 106 202 43 106 203 46 110 207 44 110 207 38 106 203 46 116 212 35 108 203 41 114 209 41 114 209 40 114 211 38 112 209 37 111 208 36 110 207 38 112 211 41 115 214 43 117 216 39 113 212 40 114 213 41 115 214 40 114 213 40 114 213 40 114 213 39 113 212 39 113 212 41 115 214 41 115 214 40 114 213 41 115 214 40 114 213 42 116 215 42 116 215 41 115 214 44 118 217 42 116 215 39 115 213 44 120 218 42 118 216 41 117 215 40 116 214 43 119 217 37 121 219 37 119 218 
45 102 191 46 103 193 48 105 195 48 105 195 47 106 198 47 106 200 48 109 202 45 105 201 44 107 204 49 113 210 41 107 203 43 111 208 42 110 207 38 108 204 42 115 210 38 111 206 37 111 208 38 112 209 40 114 211 41 115 212 41 115 212 40 114 213 39 113 212 38 112 211 40 114 213 41 115 214 41 115 214 40 114 213 40 114 213 40 114 213 40 114 213 39 113 212 44 118 217 40 114 213 40 114 213 42 116 215 44 118 217 40 114 213 41 115 214 43 119 217 41 117 215 40 116 214 38 114 212 44 120 218 41 117 213 41 117 213 40 116 212 43 119 215 38 121 217 38 121 217 
44 103 193 46 105 195 49 108 198 51 110 202 47 106 198 47 108 201 49 109 205 42 105 200 44 108 205 43 107 204 47 113 210 40 108 205 42 112 208 42 112 208 41 114 209 41 114 209 41 115 212 40 114 211 39 113 210 39 113 210 40 114 211 40 114 213 39 113 212 39 113 212 40 114 213 41 115 214 42 116 215 40 114 213 40 114 213 42 116 215 42 116 215 42 116 213 42 116 215 42 116 215 43 117 216 38 112 211 41 115 214 40 116 214 42 118 216 39 115 213 39 115 213 42 118 214 40 116 212 43 119 215 40 116 212 42 121 216 40 119 214 41 120 215 40 120 215 41 121 216 
45 104 194 45 104 194 46 105 195 46 107 198 46 107 198 46 107 200 46 109 204 47 110 205 44 108 205 45 111 207 42 110 207 44 112 209 39 109 205 37 110 205 37 110 205 40 113 208 41 115 212 38 112 209 40 114 211 38 112 209 41 115 212 37 111 210 40 114 213 40 114 213 42 116 215 38 112 211 40 114 213 40 114 213 44 118 217 39 113 210 41 115 212 40 114 211 40 114 213 42 116 215 44 120 218 45 121 219 42 118 216 39 115 213 40 116 214 43 119 217 42 118 214 42 118 214 42 118 214 39 118 213 39 118 213 40 119 214 41 120 215 40 119 214 41 120 213 41 120 213 
46 105 195 46 107 196 46 107 196 46 107 198 46 107 200 44 107 200 45 108 203 44 109 203 43 109 205 45 111 207 42 110 207 44 114 210 41 111 207 41 114 209 41 114 209 44 116 214 40 114 211 39 113 210 38 112 209 40 114 211 40 114 211 40 114 213 40 114 213 41 115 214 41 115 214 39 113 212 39 113 212 40 114 213 43 117 214 42 116 213 41 115 212 40 114 211 45 121 219 41 117 215 38 114 212 39 115 213 40 116 214 41 117 215 42 118 216 42 118 214 40 116 212 41 117 213 40 119 214 39 118 213 39 118 213 40 119 214 40 119 214 39 118 213 46 123 215 48 124 218 
47 106 196 46 107 196 46 107 198 46 107 198 44 107 200 45 108 201 43 108 202 43 107 204 43 109 205 41 109 206 41 109 206 43 113 209 39 112 207 42 114 212 41 113 211 43 115 213 39 113 210 40 114 211 38 112 209 42 116 213 39 113 210 42 116 215 40 114 213 42 116 215 36 110 209 41 115 214 43 117 216 43 117 214 38 112 209 39 113 210 41 115 212 43 119 215 41 117 215 41 117 215 41 117 215 42 118 216 42 118 216 41 117 215 41 117 215 42 118 214 41 117 213 42 118 214 40 119 214 40 119 214 40 119 214 41 120 215 41 120 215 40 119 214 45 122 214 43 118 211 
46 105 195 45 106 195 45 106 197 46 107 198 45 108 201 46 109 202 45 110 204 43 109 205 44 110 206 41 109 206 38 108 204 42 112 208 38 110 208 40 112 210 38 110 208 39 113 210 40 114 211 40 114 211 39 113 210 41 115 212 40 114 211 41 115 214 39 113 212 40 114 213 41 115 214 41 115 214 37 111 210 40 114 211 40 114 211 45 121 217 41 117 213 39 115 211 37 113 211 40 116 214 44 120 218 45 121 219 43 119 217 41 117 215 40 116 214 40 116 212 43 119 215 43 119 215 40 119 214 39 118 213 39 118 213 41 120 215 42 121 214 43 122 215 44 121 213 48 125 217 
46 105 195 46 105 195 45 106 197 46 107 198 46 109 202 47 110 203 45 110 204 44 110 206 46 112 208 43 111 208 40 110 206 43 113 209 39 111 209 41 113 211 38 112 209 38 112 209 40 114 211 39 113 210 41 115 212 39 113 210 41 115 212 39 113 212 40 114 213 39 113 212 42 116 215 42 116 215 38 112 209 39 115 211 39 115 211 44 120 216 41 117 213 39 115 209 40 116 214 40 116 214 39 115 213 39 115 213 41 117 215 41 117 215 41 117 213 39 115 211 42 118 214 42 118 214 39 118 213 38 117 212 39 118 213 41 120 213 42 121 214 42 121 214 45 124 216 40 117 209 
46 105 195 47 106 196 47 106 198 47 108 199 46 109 202 46 109 204 45 110 204 43 109 205 44 113 208 44 112 209 40 110 206 42 114 212 40 112 210 42 114 212 39 113 210 40 114 211 39 113 210 38 112 209 41 115 212 38 112 209 41 115 212 39 113 212 42 116 215 40 114 213 37 111 210 42 116 215 45 119 216 43 119 215 37 113 209 38 114 210 40 116 210 44 120 214 41 115 214 42 116 215 41 117 215 40 116 214 40 116 214 41 117 215 42 118 214 42 118 214 41 117 213 42 118 214 43 119 215 40 119 214 41 120 213 42 121 214 42 121 214 42 121 214 43 124 216 40 119 212 
46 105 195 47 106 198 48 107 199 47 108 199 47 108 201 45 108 203 44 109 203 43 109 205 43 112 207 43 111 208 40 110 206 41 113 211 40 112 210 41 115 212 39 113 210 40 114 211 39 113 210 40 114 211 40 114 211 39 113 210 40 114 211 41 115 214 42 116 215 41 115 214 41 115 214 40 114 211 40 116 212 40 116 212 42 118 214 41 117 213 41 117 211 41 117 211 39 113 212 43 117 216 46 120 219 44 120 218 42 118 216 41 117 215 42 118 214 43 119 215 41 117 213 43 119 215 43 119 215 42 121 214 42 121 214 43 122 215 43 122 215 43 122 215 45 128 220 42 123 215 
46 105 195 47 106 198 48 107 199 48 109 200 48 109 202 45 108 203 45 110 204 44 110 206 43 111 208 42 112 208 40 110 206 41 113 211 39 111 209 40 114 211 39 113 210 40 114 211 40 114 211 42 116 213 40 114 211 41 115 212 38 112 211 42 116 215 41 115 214 41 115 214 41 115 214 38 112 209 41 117 213 40 116 212 44 120 216 39 115 211 41 117 211 42 118 212 44 118 217 43 117 216 41 115 214 41 115 214 42 118 216 45 121 219 44 120 216 41 117 213 41 117 213 42 118 214 42 118 214 42 118 212 40 119 212 42 121 214 43 122 215 43 122 215 37 120 212 44 127 219 
46 107 198 42 103 194 44 105 198 45 108 201 44 107 200 47 112 206 48 114 208 45 111 205 41 110 205 42 112 207 43 113 208 41 114 208 40 113 207 39 114 207 40 115 208 42 117 210 37 116 208 37 115 213 40 118 219 36 114 214 41 117 211 38 115 205 41 117 213 39 114 216 43 118 220 42 118 214 41 118 208 40 116 210 40 115 216 42 117 219 41 117 215 40 117 209 42 116 211 42 116 211 42 118 212 43 119 213 42 118 212 39 118 211 40 119 212 41 120 213 40 119 212 39 118 211 40 119 212 42 118 212 40 116 210 49 125 219 42 118 212 47 121 216 49 125 223 41 113 211 
48 109 200 46 107 198 48 109 202 47 110 203 46 109 202 46 111 205 47 113 207 43 112 205 42 111 206 42 112 207 42 112 207 40 113 207 40 113 207 39 114 207 40 115 208 40 115 208 38 117 210 38 117 212 40 118 218 36 114 212 41 117 211 40 117 209 42 118 214 40 115 216 41 114 216 41 115 212 40 117 209 40 116 210 41 117 215 43 118 219 43 119 215 41 118 210 42 116 211 41 115 210 41 115 210 41 117 211 42 118 212 41 117 211 40 119 212 40 119 212 42 121 214 39 118 211 44 120 214 45 121 215 44 120 214 48 124 218 44 118 213 48 122 217 41 118 208 42 115 210 
47 108 199 46 107 200 49 110 203 48 111 204 45 110 204 45 110 204 45 111 205 41 110 205 43 112 207 42 112 207 43 113 208 41 114 208 42 115 210 43 116 211 42 116 211 42 116 211 38 117 212 38 117 212 41 117 213 39 115 211 41 117 213 41 117 211 43 117 214 42 116 213 40 114 211 41 115 212 42 116 211 42 116 211 42 116 213 42 118 214 42 118 214 41 117 211 43 117 212 42 116 211 41 115 210 42 116 211 42 118 212 42 118 212 42 118 212 43 119 213 45 121 215 42 118 212 44 120 214 45 121 215 46 122 216 46 120 215 45 119 214 48 122 217 45 123 205 61 134 228 
45 106 199 46 107 200 45 108 201 46 109 202 45 110 204 44 110 204 44 110 206 42 111 206 42 112 207 43 113 208 44 114 210 42 115 210 42 115 210 43 116 211 43 116 211 43 116 211 40 116 214 41 117 211 42 119 211 41 117 211 41 117 213 42 116 215 43 117 214 42 117 210 40 115 208 42 116 213 42 116 215 42 116 213 42 117 210 43 118 211 43 117 212 42 116 213 44 117 212 42 116 211 42 116 211 44 118 213 45 119 214 43 119 213 43 119 213 43 119 213 45 121 215 44 120 214 43 119 213 45 121 215 46 120 215 45 119 214 47 121 216 48 122 217 54 132 215 53 127 216 
47 108 201 45 108 201 45 108 201 46 109 204 46 111 205 46 112 206 45 111 207 44 113 208 41 111 207 43 113 209 44 114 210 42 115 210 40 113 208 39 112 207 40 113 208 41 114 209 39 114 215 41 117 211 43 120 210 44 119 212 42 116 215 42 115 217 41 115 212 41 116 207 40 115 206 41 115 212 42 115 217 41 115 214 42 117 210 43 119 207 45 120 213 45 119 218 43 116 211 43 116 211 44 118 213 45 119 214 45 119 214 44 118 213 44 118 213 44 120 214 43 119 213 47 123 217 44 120 214 47 123 217 46 120 215 45 119 214 49 123 218 49 123 218 47 125 208 55 129 216 
46 109 202 47 110 203 46 109 202 44 109 203 47 112 206 46 112 208 42 111 206 43 111 208 40 110 206 42 112 208 44 114 210 44 114 210 41 114 209 40 113 208 41 114 209 43 116 211 39 114 215 42 118 212 43 119 207 44 119 210 42 116 215 43 116 218 41 115 212 41 116 207 42 117 208 43 117 214 42 115 217 41 115 214 42 117 208 43 119 207 44 119 212 43 118 219 41 115 212 42 116 213 44 118 213 45 119 214 45 119 214 44 118 213 44 118 213 44 120 214 41 117 211 46 122 216 45 121 215 48 124 218 48 122 217 41 115 210 50 124 219 49 123 218 56 135 212 56 131 214 
44 107 200 47 110 203 46 109 202 45 110 204 46 112 206 45 111 207 41 110 205 43 111 208 40 110 206 42 112 208 44 114 210 45 115 211 45 115 211 45 115 211 46 116 212 47 117 212 42 116 215 44 118 213 42 117 208 44 119 212 42 116 213 45 119 218 42 116 213 43 116 208 45 120 211 44 118 215 43 116 218 42 116 215 43 118 211 43 120 210 42 118 212 41 117 215 43 117 212 43 117 212 43 117 212 44 118 213 45 119 214 44 118 213 44 120 214 45 121 215 44 120 214 44 120 214 45 121 215 46 122 216 51 127 221 32 108 202 49 126 218 50 127 219 54 134 205 41 116 199 
42 105 198 47 110 203 46 111 205 46 111 205 47 113 209 45 111 207 41 110 205 44 112 209 43 113 209 44 114 210 45 115 211 45 115 211 45 115 210 44 114 209 45 114 209 45 114 209 44 118 213 44 118 213 40 115 208 44 117 211 43 116 211 48 120 218 45 118 213 44 117 211 44 119 212 44 118 213 43 117 214 43 117 214 43 119 213 44 120 214 43 119 213 41 117 213 45 119 214 42 118 212 42 118 212 43 119 213 44 120 214 45 121 215 45 121 215 46 122 216 50 126 220 44 121 213 47 124 216 44 121 213 54 131 223 26 103 195 51 128 220 55 132 224 58 138 211 55 130 213 
43 106 199 46 109 202 45 110 204 44 109 203 46 112 208 44 110 206 40 109 204 43 111 208 42 112 208 41 111 207 48 118 214 46 115 210 46 115 210 45 114 207 39 108 201 55 121 215 44 117 209 46 119 213 35 108 203 46 119 214 45 118 212 54 127 221 38 111 206 46 118 216 45 117 215 46 120 215 41 115 210 44 118 213 46 122 218 46 122 220 43 119 215 43 122 215 41 117 211 45 121 215 41 117 211 46 122 216 49 125 219 42 119 211 48 125 217 39 116 208 49 126 218 40 117 209 51 128 220 49 126 216 51 128 218 35 112 202 51 128 218 54 131 221 53 131 213 63 137 222 
44 107 200 47 110 203 46 111 205 46 111 205 47 113 207 46 112 208 42 111 206 44 113 208 45 114 209 46 115 210 42 111 206 44 113 206 48 114 208 54 121 212 44 111 202 46 113 204 52 122 210 48 117 210 24 94 190 49 119 214 50 121 211 49 120 208 36 107 199 51 121 219 45 117 215 52 125 219 48 123 214 45 120 213 43 119 217 46 121 222 45 121 217 39 118 210 45 122 214 46 123 215 43 120 212 47 124 216 48 125 217 47 124 216 43 120 212 34 111 201 48 123 214 42 117 208 49 124 215 52 127 218 57 132 223 38 114 202 57 133 221 52 128 216 62 138 224 67 139 224 
44 107 200 47 110 203 46 111 203 46 111 205 47 113 207 46 112 208 42 111 206 44 113 208 42 111 206 50 119 214 41 110 203 55 121 215 53 120 211 51 116 206 49 114 204 26 91 181 39 107 192 52 119 210 30 96 192 50 116 210 56 123 210 56 124 209 40 109 200 54 122 221 56 126 224 53 124 216 51 125 212 47 120 212 45 119 216 42 117 218 46 122 218 46 123 213 44 121 213 45 122 214 44 121 211 44 121 211 44 121 211 50 125 216 41 116 207 40 115 206 45 121 209 34 108 197 43 117 206 56 130 219 57 131 220 35 109 198 52 126 213 63 137 224 48 123 204 71 141 227 
46 109 202 47 110 203 46 111 203 46 111 205 46 112 206 46 112 208 44 113 208 45 114 209 45 114 207 43 112 205 50 117 208 51 118 209 46 111 201 49 115 202 59 123 211 48 112 199 34 96 179 56 117 206 22 83 176 70 134 224 48 113 197 43 108 192 55 121 208 60 124 221 61 127 223 45 114 205 56 128 213 46 117 207 50 123 218 44 118 217 47 121 216 48 124 212 46 123 213 46 123 213 47 124 214 45 120 211 50 126 214 55 129 218 37 111 200 42 116 205 38 109 199 58 129 217 29 100 188 54 125 213 51 122 210 27 98 186 66 137 225 55 127 212 63 137 212 61 131 216 
48 111 204 47 110 203 47 110 203 47 112 206 46 112 206 47 113 207 46 115 208 46 115 208 45 114 207 52 119 210 51 118 207 55 120 210 46 112 199 38 102 189 46 108 193 49 111 196 47 106 186 27 85 169 50 107 194 72 129 216 42 100 184 41 102 185 68 130 217 52 113 204 54 118 208 39 105 192 62 129 216 41 111 199 55 126 218 55 125 220 50 123 215 44 118 207 47 123 211 47 123 211 48 124 212 46 120 209 56 130 219 57 128 216 32 103 191 34 104 192 46 116 204 72 139 226 24 91 178 52 119 206 52 119 206 33 100 187 65 132 219 51 118 205 73 142 220 44 112 197 
49 112 205 47 110 203 48 111 204 47 112 204 47 112 206 47 113 207 49 115 209 46 115 208 50 117 208 56 123 214 51 116 206 55 121 208 52 116 203 51 113 198 41 103 186 57 119 202 54 107 187 44 97 177 49 102 182 58 113 195 37 92 175 64 120 203 64 122 206 59 117 201 52 112 198 37 99 186 55 119 207 42 107 197 60 127 216 57 127 215 56 125 216 52 123 213 51 125 214 56 130 217 55 129 216 56 127 215 55 126 214 60 130 218 48 115 204 45 112 199 50 116 203 57 123 210 40 106 193 47 111 198 57 121 208 40 104 191 49 113 200 63 127 214 77 144 225 37 105 188 
49 112 205 47 110 203 49 112 205 50 115 207 49 114 208 49 115 209 50 116 210 47 113 207 51 118 209 39 106 195 60 126 213 57 121 208 53 118 202 56 118 201 33 94 175 30 91 172 83 131 213 28 77 154 45 97 172 37 89 165 39 90 173 67 119 203 69 124 207 69 126 207 42 101 181 35 95 181 41 102 191 46 110 198 61 127 213 56 124 207 60 127 214 60 129 220 50 121 209 55 126 214 49 120 208 58 128 216 38 108 196 59 126 213 57 123 210 39 103 191 36 100 188 60 122 209 66 128 215 36 98 185 61 123 210 37 99 184 50 112 197 59 121 206 83 149 225 34 101 182 
53 114 205 49 112 205 52 115 208 54 119 211 53 118 212 52 118 212 53 119 213 49 116 207 56 123 214 47 114 203 50 116 203 65 129 216 61 123 208 41 103 186 76 137 218 19 80 161 67 114 196 39 87 163 42 92 163 10 59 135 65 116 199 62 112 197 62 114 197 60 116 193 21 78 157 36 93 180 33 92 184 50 111 200 60 125 207 59 126 207 63 131 216 56 123 214 59 130 218 58 129 217 47 117 205 64 134 222 37 104 191 69 135 222 63 127 215 20 84 172 45 107 194 56 118 205 88 148 236 27 87 173 66 126 212 34 94 180 36 96 182 51 111 197 82 147 215 36 103 182 
39 123 211 40 119 212 46 120 217 50 120 216 43 113 199 54 117 196 69 125 200 49 100 179 64 120 203 43 109 196 39 108 199 66 127 218 79 129 216 42 87 170 64 113 190 32 88 163 43 96 162 51 84 151 40 60 133 42 75 156 54 111 200 51 117 203 76 128 203 60 90 152 62 82 145 46 71 153 40 78 179 61 118 221 48 119 209 62 133 211 71 122 205 90 121 212 77 127 226 57 136 229 41 136 228 40 116 210 55 98 192 90 123 204 85 140 205 17 98 154 13 94 159 69 132 209 67 113 199 46 87 175 76 122 208 34 84 171 48 99 188 57 108 197 61 122 203 51 127 202 
54 116 201 55 119 207 58 124 218 51 120 213 55 126 214 45 113 198 28 91 171 35 90 172 42 94 178 59 113 201 46 102 195 64 124 220 66 127 218 50 107 188 40 95 162 47 99 156 43 89 151 44 71 138 48 65 134 40 71 138 59 118 188 59 127 202 47 101 175 48 79 144 51 70 128 14 38 102 55 90 172 54 105 197 69 134 226 57 128 216 62 133 221 68 134 228 70 131 211 64 142 214 42 130 202 61 139 221 53 113 201 60 115 195 80 145 211 32 103 165 13 77 151 87 139 225 55 101 189 75 123 207 35 86 167 42 93 172 76 125 202 36 84 160 66 126 199 59 123 197 
68 115 193 69 121 204 52 109 196 58 117 207 63 124 217 55 116 207 55 119 206 52 113 196 48 100 183 47 93 178 61 108 200 58 114 211 64 131 222 60 127 205 45 104 160 77 126 167 23 57 118 42 63 130 61 78 147 28 60 121 74 130 187 39 105 166 55 108 176 37 68 133 51 72 129 25 51 108 27 70 139 69 121 204 74 135 218 57 124 202 58 136 208 70 157 226 69 129 166 71 133 174 74 137 188 67 136 205 48 123 204 33 110 190 73 143 213 74 131 202 18 60 142 71 110 201 71 117 203 38 94 169 70 129 197 20 73 141 71 118 188 62 105 174 63 121 185 25 73 149 
51 105 179 57 110 188 45 96 179 57 101 190 68 107 202 74 117 211 49 103 191 57 120 199 66 128 205 62 114 197 56 103 191 53 103 192 69 127 209 84 147 216 59 118 174 38 90 137 33 55 115 94 117 185 41 67 141 38 74 148 72 119 187 34 88 150 35 80 139 60 90 152 43 66 134 61 94 171 42 97 177 73 141 216 46 110 172 85 139 185 74 127 158 1 59 79 13 45 42 0 22 42 2 30 78 70 117 185 63 132 209 49 122 201 63 121 203 82 120 205 54 85 168 75 111 195 74 121 201 47 101 173 75 134 194 28 82 142 76 123 191 21 59 140 90 140 199 34 74 144 
28 90 167 33 90 167 39 88 167 35 73 158 47 77 167 42 73 163 54 96 178 56 114 188 42 108 182 62 125 204 61 114 194 30 74 149 44 84 153 78 122 185 71 120 186 67 120 188 47 67 128 38 69 134 73 115 191 32 74 160 66 104 189 69 106 177 41 76 134 42 71 131 46 69 147 55 88 183 51 106 199 35 105 177 82 145 189 46 84 105 16 36 37 13 25 15 18 21 10 10 10 36 0 0 61 55 87 160 59 114 181 80 138 211 56 100 187 96 130 219 67 104 182 27 72 140 43 90 162 57 105 177 89 143 203 36 91 145 62 110 174 47 84 165 73 120 174 67 106 173 
65 120 202 51 102 181 35 82 160 69 112 191 39 81 163 37 79 161 21 67 144 25 78 148 58 116 189 61 120 196 63 116 192 82 122 191 25 55 115 61 90 150 79 116 187 48 95 177 31 51 112 14 54 115 92 145 213 51 97 175 55 87 172 77 104 185 86 119 188 39 70 135 40 62 135 73 91 175 68 100 185 107 155 227 58 108 159 11 42 73 11 19 38 30 24 38 16 24 47 0 2 56 50 67 145 77 114 185 61 110 168 79 124 183 81 119 194 72 113 195 51 99 171 70 118 182 88 127 196 48 86 161 87 136 203 52 109 164 71 121 172 56 88 147 23 67 116 81 122 184 
73 115 197 75 116 195 56 98 174 34 83 159 85 144 222 69 131 208 72 129 206 45 95 168 55 102 174 39 89 160 56 104 176 48 88 157 96 127 192 31 56 123 30 57 128 67 99 174 34 50 109 45 79 140 55 103 167 61 106 173 81 115 187 67 99 176 72 108 184 30 63 130 72 91 149 72 78 136 52 63 129 0 19 92 15 55 125 0 33 98 0 18 83 14 25 91 0 21 95 70 109 186 88 132 207 105 153 219 50 95 152 65 105 157 68 108 167 97 145 211 36 85 154 87 126 195 102 131 199 48 81 152 68 117 186 106 162 223 25 68 113 75 100 131 80 118 165 43 79 137 
50 97 167 54 96 172 40 79 158 34 79 160 35 88 168 76 137 217 42 101 181 80 131 210 54 98 171 75 119 184 50 94 157 70 113 182 44 82 157 68 100 175 26 53 122 55 79 141 57 67 126 44 63 129 52 82 154 69 107 178 72 116 181 30 74 137 108 150 210 34 67 121 50 70 121 0 10 63 44 64 127 73 111 186 103 151 233 108 158 243 116 155 246 105 135 233 92 149 252 95 154 232 70 129 187 92 142 201 92 130 195 85 117 178 62 98 148 50 91 143 49 84 150 107 134 205 66 90 154 41 76 134 86 131 196 68 113 181 40 67 122 74 84 120 2 34 85 78 107 163 
47 108 173 42 98 173 34 80 165 48 88 175 41 78 159 51 90 169 52 97 178 67 116 195 47 94 166 49 93 154 67 110 165 60 104 169 73 116 194 95 136 216 62 96 167 72 101 159 45 55 126 32 44 116 36 55 132 69 104 186 56 104 178 59 111 161 65 106 138 33 61 98 0 10 70 66 101 182 91 143 226 86 154 229 79 148 223 88 149 229 73 119 204 94 130 218 75 127 228 73 130 199 57 111 157 86 129 184 41 71 144 37 61 131 38 64 113 6 31 72 25 46 101 94 115 180 73 102 160 47 85 130 20 56 104 67 91 153 44 53 122 55 56 123 63 99 161 32 59 112 
50 114 188 68 133 215 51 113 200 82 132 217 66 102 178 26 53 124 38 66 140 84 117 196 75 113 186 68 108 170 60 99 154 65 106 162 21 69 135 91 139 213 82 126 201 28 66 139 80 107 194 44 66 139 64 87 157 39 74 156 87 134 212 47 91 136 71 101 112 0 19 46 40 72 147 90 147 254 73 149 247 69 153 223 81 157 219 67 127 199 82 130 204 49 90 156 64 102 187 72 116 179 63 111 157 32 72 121 69 99 161 74 95 158 72 90 136 67 84 114 50 69 102 33 61 109 46 86 138 43 80 122 70 91 122 76 79 120 41 42 109 77 82 174 96 149 217 80 114 162 
44 95 186 79 140 229 57 127 212 48 115 193 72 125 195 70 105 171 26 49 116 46 66 137 46 70 142 28 57 125 26 60 121 46 85 140 61 106 163 22 67 132 78 121 199 46 86 173 86 132 218 46 85 152 95 130 186 13 52 119 66 105 172 130 159 199 0 14 30 30 48 86 86 124 209 87 149 255 76 151 242 81 152 214 81 143 204 88 144 219 59 112 188 70 124 188 40 73 142 78 118 177 51 96 138 54 97 129 33 68 100 64 90 127 53 72 104 40 55 74 63 82 97 28 61 92 62 104 154 63 95 144 22 31 64 43 40 69 81 92 148 73 100 189 84 148 219 99 143 192 
63 109 203 57 112 195 78 142 216 66 136 206 57 124 195 73 126 196 67 102 166 68 92 152 83 104 167 82 109 178 107 139 212 53 91 156 72 108 166 74 106 165 47 77 147 47 75 158 66 111 178 60 104 169 76 120 185 58 100 160 26 59 104 64 79 110 18 24 58 33 53 114 94 140 226 75 139 227 79 143 214 96 151 208 98 147 213 76 127 206 86 141 223 62 118 195 64 97 151 44 81 126 63 100 127 61 95 105 48 75 84 0 19 38 51 66 87 11 21 31 0 8 11 46 67 84 78 105 150 63 85 143 33 43 96 29 42 87 88 120 177 73 129 203 40 94 158 90 136 186 
50 106 189 87 139 212 48 96 162 84 132 204 72 127 209 55 112 193 90 141 207 54 95 147 93 129 179 47 82 146 50 87 165 44 79 160 62 89 158 43 62 120 49 64 121 66 78 138 39 64 104 88 121 192 48 89 179 59 100 166 29 56 85 0 2 23 70 73 124 35 60 140 90 142 226 77 144 215 78 140 201 80 131 194 99 147 213 44 93 162 81 127 202 79 118 197 128 158 196 45 73 97 2 22 29 24 38 39 3 13 23 1 9 30 8 14 36 32 32 42 40 36 37 21 21 33 125 133 170 25 39 102 88 107 184 76 108 185 91 141 214 102 171 240 62 89 144 53 92 149 
73 138 204 28 79 144 72 107 175 68 95 174 102 136 223 76 121 204 76 129 197 82 134 184 33 81 129 53 98 157 84 121 199 72 103 186 72 94 170 56 71 130 9 20 65 23 36 71 85 93 132 9 32 108 64 103 198 79 118 187 53 77 105 48 55 83 27 37 98 88 122 209 80 138 220 79 148 217 80 145 211 41 100 170 71 125 189 35 82 136 41 76 134 15 38 108 75 98 130 23 38 57 10 19 28 29 35 51 26 31 63 62 67 105 46 47 75 60 52 65 30 18 22 25 15 26 47 46 77 25 38 93 109 136 215 50 90 178 111 162 243 79 136 207 55 67 117 91 123 182 
59 111 171 81 128 196 80 116 194 58 86 169 27 54 131 83 116 185 63 103 165 43 88 147 43 88 147 14 54 116 30 60 130 49 75 149 104 127 197 107 129 187 81 106 146 12 39 66 76 86 157 36 64 137 63 107 170 54 91 136 7 26 59 56 66 115 30 52 125 82 124 208 76 135 213 83 147 219 78 137 213 62 118 192 75 125 186 70 112 162 66 99 150 49 79 139 26 44 90 73 85 125 72 81 120 57 75 123 81 107 166 58 81 133 35 44 77 53 49 63 26 21 28 13 12 28 20 26 58 149 166 212 12 41 97 86 122 184 17 52 116 78 109 173 126 153 198 32 62 124 
27 58 122 47 84 162 53 97 184 86 127 209 90 124 188 26 53 106 49 76 131 85 116 181 80 112 185 72 101 169 11 32 95 71 92 155 28 56 119 68 103 159 57 99 139 0 40 65 36 59 163 111 152 218 48 98 125 42 79 95 0 5 44 92 102 171 4 32 115 99 150 229 101 159 233 80 136 211 86 137 216 86 132 207 78 119 181 40 77 130 109 150 204 18 64 123 19 39 102 65 80 147 20 40 111 55 94 169 70 122 195 50 95 154 39 59 92 83 89 101 1 8 16 6 21 40 0 2 38 121 143 182 125 150 181 75 102 131 55 74 114 71 81 132 90 139 180 38 72 135 
72 103 167 42 62 135 70 92 168 66 106 176 60 113 167 112 150 199 51 66 133 44 59 144 77 110 187 59 102 137 43 72 78 23 48 68 77 118 184 30 86 179 50 100 169 27 57 91 16 55 148 89 119 171 82 112 136 49 91 133 4 48 123 102 134 211 0 9 59 110 148 184 93 159 209 80 152 226 103 158 238 70 110 172 39 82 127 103 147 184 77 97 134 61 54 88 90 125 181 48 82 130 44 74 124 51 77 136 36 62 123 91 123 164 68 99 117 30 43 52 19 7 19 39 13 26 34 21 31 30 45 68 94 131 183 75 114 181 58 80 129 97 102 124 127 174 194 15 49 94 
69 113 188 82 115 186 40 68 133 41 77 137 35 78 131 30 62 109 69 85 134 100 112 172 66 87 154 62 93 150 44 73 115 6 34 74 63 96 150 107 147 217 56 93 163 74 100 161 0 17 83 101 122 169 73 99 132 0 20 56 21 58 113 127 153 228 9 26 104 100 133 200 73 133 193 62 138 200 66 134 205 80 133 203 80 125 184 46 86 138 16 41 97 51 63 123 49 85 135 26 57 111 99 124 178 21 42 87 18 37 69 73 91 115 27 43 68 1 8 34 27 24 41 42 33 36 31 27 28 5 16 34 99 122 166 96 122 179 36 57 104 16 29 61 93 120 131 63 83 118 
