P3
25 25
255
0 50 141 0 51 142 0 50 145 0 53 150 0 57 155 0 63 160 0 69 164 0 71 167 0 73 168 0 72 170 0 72 171 0 74 173 0 73 174 0 73 175 0 73 174 0 74 173 0 69 168 0 69 169 0 71 171 0 72 172 0 72 172 0 72 172 0 73 172 0 74 173 0 75 175 
0 52 143 0 52 144 0 53 147 0 55 151 0 59 156 0 64 160 0 69 165 0 71 167 0 73 168 0 72 170 0 73 171 0 74 173 0 73 173 0 73 174 0 74 173 0 74 173 0 72 172 0 72 172 0 72 172 0 72 172 0 73 172 0 74 173 0 74 173 0 74 173 0 80 179 
0 55 145 0 56 146 0 55 149 0 58 153 0 61 158 0 65 161 0 69 165 0 72 167 0 73 168 0 73 170 0 74 172 0 74 173 0 74 173 0 74 173 0 74 173 0 74 173 0 73 172 0 73 172 0 73 172 0 74 173 0 74 173 0 75 173 0 75 173 0 76 174 0 83 181 
0 58 147 0 58 148 0 59 152 0 61 156 0 63 160 0 67 163 0 69 165 0 73 168 0 74 171 0 74 171 0 74 172 0 74 173 0 74 173 0 74 173 0 74 173 0 74 172 0 74 173 0 74 173 0 74 173 0 75 173 0 76 173 0 76 173 0 76 172 0 77 173 0 81 177 
0 59 149 0 60 150 0 61 154 0 63 158 0 65 161 0 68 165 0 71 167 0 72 168 0 74 171 0 74 171 0 74 172 0 74 173 0 74 173 0 74 173 0 74 171 0 74 171 0 75 173 0 76 174 0 76 174 0 76 173 0 76 172 0 78 173 0 79 174 0 79 174 0 77 170 
0 60 149 0 61 152 0 63 156 0 65 160 0 67 163 0 69 165 0 72 169 0 72 170 0 74 171 0 74 171 0 74 172 0 74 173 0 74 173 0 74 172 0 74 171 0 75 171 0 76 174 0 76 174 0 76 174 0 76 173 0 76 172 0 79 174 0 79 174 0 79 173 0 76 168 
0 59 149 0 60 151 0 63 156 0 65 160 0 67 164 0 70 167 0 72 170 0 74 171 0 74 171 0 74 171 0 74 172 0 74 173 0 74 173 0 75 171 0 76 172 0 76 170 0 75 173 0 76 174 0 76 174 0 76 172 0 76 172 0 78 173 0 79 172 0 79 172 0 79 171 
0 59 150 0 60 151 0 62 156 0 65 160 0 68 165 0 71 168 0 73 170 0 74 171 0 74 171 0 74 171 0 74 172 0 74 173 0 74 172 0 76 172 0 76 172 0 76 170 0 74 173 0 74 173 0 76 174 0 76 172 0 76 172 0 76 171 0 79 172 0 79 172 0 82 174 
0 61 152 0 62 155 0 64 157 0 66 160 0 69 164 0 71 166 0 74 167 0 75 168 0 78 173 0 78 177 0 76 169 0 75 174 0 74 173 0 76 169 0 75 175 0 76 171 0 74 169 0 75 169 0 76 170 0 79 172 0 79 172 0 76 170 0 76 170 0 74 169 0 74 169 
0 61 153 0 62 155 0 65 159 0 67 162 0 69 164 0 71 166 0 73 168 0 73 168 0 77 173 0 76 170 0 75 171 0 74 170 0 74 170 0 74 170 0 75 169 0 75 170 0 73 168 0 74 169 0 75 169 0 76 170 0 76 170 0 76 170 0 74 169 0 74 169 0 75 162 
0 62 155 0 63 157 0 65 160 0 68 163 0 70 166 0 70 166 0 73 168 0 73 168 0 75 173 0 75 166 0 73 174 0 74 168 0 74 168 0 73 174 0 75 165 0 74 171 0 73 169 0 74 169 0 74 169 0 75 169 0 76 170 0 76 170 0 74 169 0 74 169 0 76 159 
0 63 156 0 64 158 0 66 161 0 68 164 0 70 166 0 70 166 0 70 165 0 69 164 0 74 170 0 74 167 0 73 170 0 73 167 0 74 168 0 73 172 0 76 168 0 76 171 0 74 169 0 75 169 0 75 169 0 76 170 0 76 169 0 76 169 0 76 169 0 77 169 0 77 155 
0 63 156 0 65 159 0 66 161 0 68 164 0 69 165 0 69 164 0 67 161 0 67 159 0 71 163 0 71 166 0 72 163 0 71 167 0 72 169 0 74 168 0 75 174 0 77 171 0 76 169 0 76 169 0 76 169 0 77 168 0 76 167 0 76 167 0 76 166 0 76 165 0 75 159 
0 63 156 0 65 158 0 66 161 0 69 164 0 69 163 0 67 159 0 65 155 0 64 153 0 64 151 0 64 157 0 66 151 0 66 160 0 69 163 0 72 161 0 74 172 0 75 168 0 77 168 0 76 166 0 75 165 0 74 164 0 73 161 0 72 161 0 72 161 0 72 159 0 72 154 
0 63 156 0 64 157 0 65 159 0 68 161 0 67 159 0 65 154 0 64 150 0 62 146 0 55 136 0 55 139 0 57 140 0 59 146 0 63 150 0 66 154 0 69 160 0 71 162 0 75 163 0 73 161 0 71 159 0 68 156 0 67 154 0 66 153 0 65 152 0 65 152 0 68 149 
0 62 155 0 64 156 0 65 159 0 66 159 0 67 157 0 65 152 0 62 146 0 61 142 0 48 127 0 50 125 0 51 134 0 55 136 0 58 141 0 61 150 0 66 149 0 67 156 0 71 159 0 70 158 0 67 154 0 64 152 0 62 149 0 61 148 0 61 147 0 61 146 0 66 142 
0 72 160 0 69 164 0 68 152 0 56 135 0 57 142 0 61 154 0 53 138 0 53 122 0 39 105 0 25 97 0 62 142 0 41 110 0 22 88 0 45 139 0 69 156 0 54 143 0 67 153 0 84 169 0 47 133 0 68 130 0 65 140 0 45 131 0 49 132 0 49 132 0 65 141 
0 51 129 0 52 140 0 51 144 0 60 144 0 53 135 0 50 141 0 63 143 0 54 104 0 25 89 0 27 97 0 55 117 0 39 103 0 25 90 0 54 131 0 61 128 0 69 117 0 44 67 0 51 110 0 73 152 0 55 132 0 37 122 0 50 129 0 56 120 0 43 115 0 49 116 
0 56 135 0 44 124 0 36 122 0 49 125 0 61 137 0 47 122 0 35 98 0 46 118 0 27 89 0 45 122 0 33 114 0 32 95 0 24 106 1 53 133 0 45 82 1 10 16 2 5 28 0 21 92 0 51 116 0 39 122 0 44 115 0 43 115 0 53 112 0 41 105 0 42 100 
0 43 119 0 43 121 0 58 137 0 54 131 0 46 116 0 43 112 0 31 102 0 27 96 0 19 81 0 40 108 0 38 107 2 38 102 0 13 68 0 22 91 2 45 121 5 29 109 0 44 127 1 51 116 0 38 97 0 41 98 1 39 108 0 30 96 1 50 116 0 26 68 0 33 86 
0 61 135 0 49 135 0 34 111 0 38 117 0 42 109 0 41 99 0 45 119 0 36 105 0 17 93 0 28 105 0 47 109 0 29 56 0 33 114 0 70 151 0 66 138 0 42 121 0 47 127 0 46 95 0 26 93 0 21 63 0 22 72 0 36 85 0 21 66 0 4 77 0 37 95 
0 53 142 0 67 144 0 52 121 0 25 91 0 25 93 1 37 101 0 39 99 0 35 114 0 43 114 0 40 102 7 36 82 0 14 51 0 52 143 0 66 136 0 54 124 0 54 129 0 35 92 0 39 67 0 26 51 0 14 35 0 20 36 0 30 81 0 8 48 0 31 100 0 52 110 
0 56 127 0 39 110 0 48 131 0 49 108 0 41 96 0 35 115 0 20 86 0 12 62 0 22 78 0 40 120 0 15 41 0 18 87 0 61 138 0 59 124 0 49 112 0 35 106 7 31 59 0 12 20 0 7 32 2 1 20 6 0 7 6 15 61 2 31 112 3 60 133 0 27 82 
0 41 109 0 37 119 0 30 96 0 35 96 0 36 102 0 24 92 2 29 91 0 33 66 2 28 106 0 42 79 0 11 58 0 35 115 0 59 134 0 53 129 0 42 99 2 39 95 0 16 70 0 21 79 0 36 97 1 8 31 1 5 18 17 29 67 6 35 80 0 23 78 6 41 94 
0 32 102 0 31 99 3 44 95 0 14 79 0 32 91 0 27 54 1 44 115 0 35 94 0 27 91 0 29 63 7 42 112 2 26 84 0 68 130 0 54 125 0 43 92 1 14 61 0 34 86 0 25 77 0 23 63 0 16 36 12 0 11 4 6 19 0 31 86 0 15 52 6 38 66 
